<mxfile host="app.diagrams.net" modified="2022-09-08T08:35:23.832Z" agent="5.0 (Windows NT 10.0; Win64; x64) AppleWebKit/537.36 (KHTML, like Gecko) Chrome/105.0.0.0 Safari/537.36" etag="q5rKss0kASHe-0_a_mAh" version="20.3.0" type="github">
  <diagram name="Page-1" id="13e1069c-82ec-6db2-03f1-153e76fe0fe0">
    <mxGraphModel dx="782" dy="1262" grid="1" gridSize="10" guides="1" tooltips="1" connect="1" arrows="1" fold="1" page="1" pageScale="1" pageWidth="1100" pageHeight="850" background="none" math="0" shadow="0">
      <root>
        <mxCell id="0" />
        <mxCell id="1" parent="0" />
        <mxCell id="0QG6ZbSnmFtCP5YNF4mJ-2" value=":Object" style="shape=umlLifeline;perimeter=lifelinePerimeter;whiteSpace=wrap;html=1;container=1;collapsible=0;recursiveResize=0;outlineConnect=0;" vertex="1" parent="1">
          <mxGeometry x="260" y="-340" width="100" height="300" as="geometry" />
        </mxCell>
        <mxCell id="0QG6ZbSnmFtCP5YNF4mJ-11" value="" style="html=1;points=[];perimeter=orthogonalPerimeter;" vertex="1" parent="0QG6ZbSnmFtCP5YNF4mJ-2">
          <mxGeometry x="45" y="90" width="10" height="80" as="geometry" />
        </mxCell>
        <mxCell id="0QG6ZbSnmFtCP5YNF4mJ-3" value=":Object" style="shape=umlLifeline;perimeter=lifelinePerimeter;whiteSpace=wrap;html=1;container=1;collapsible=0;recursiveResize=0;outlineConnect=0;" vertex="1" parent="1">
          <mxGeometry x="490" y="-340" width="100" height="300" as="geometry" />
        </mxCell>
        <mxCell id="0QG6ZbSnmFtCP5YNF4mJ-13" value="" style="html=1;points=[];perimeter=orthogonalPerimeter;" vertex="1" parent="0QG6ZbSnmFtCP5YNF4mJ-3">
          <mxGeometry x="45" y="90" width="10" height="80" as="geometry" />
        </mxCell>
        <mxCell id="0QG6ZbSnmFtCP5YNF4mJ-4" value="xxljob" style="whiteSpace=wrap;html=1;shape=mxgraph.basic.document" vertex="1" parent="1">
          <mxGeometry x="260" y="-470" width="100" height="100" as="geometry" />
        </mxCell>
        <mxCell id="0QG6ZbSnmFtCP5YNF4mJ-5" value="zaip-aic-web-service" style="whiteSpace=wrap;html=1;shape=mxgraph.basic.document" vertex="1" parent="1">
          <mxGeometry x="490" y="-470" width="100" height="100" as="geometry" />
        </mxCell>
        <mxCell id="0QG6ZbSnmFtCP5YNF4mJ-6" value="nlp模型服务" style="whiteSpace=wrap;html=1;shape=mxgraph.basic.document" vertex="1" parent="1">
          <mxGeometry x="710" y="-470" width="100" height="100" as="geometry" />
        </mxCell>
        <mxCell id="0QG6ZbSnmFtCP5YNF4mJ-7" value=":Object" style="shape=umlLifeline;perimeter=lifelinePerimeter;whiteSpace=wrap;html=1;container=1;collapsible=0;recursiveResize=0;outlineConnect=0;" vertex="1" parent="1">
          <mxGeometry x="710" y="-340" width="100" height="300" as="geometry" />
        </mxCell>
        <mxCell id="0QG6ZbSnmFtCP5YNF4mJ-12" style="edgeStyle=orthogonalEdgeStyle;rounded=0;orthogonalLoop=1;jettySize=auto;html=1;exitX=0.5;exitY=0;exitDx=0;exitDy=0;exitPerimeter=0;entryX=0.1;entryY=0;entryDx=0;entryDy=0;entryPerimeter=0;" edge="1" parent="1" source="0QG6ZbSnmFtCP5YNF4mJ-11" target="0QG6ZbSnmFtCP5YNF4mJ-13">
          <mxGeometry relative="1" as="geometry">
            <mxPoint x="530" y="-250" as="targetPoint" />
            <Array as="points">
              <mxPoint x="420" y="-250" />
              <mxPoint x="420" y="-250" />
            </Array>
          </mxGeometry>
        </mxCell>
      </root>
    </mxGraphModel>
  </diagram>
</mxfile>
